<svg xmlns="http://www.w3.org/2000/svg" width="28" height="28" viewBox="0 0 28 28">
    <g fill="#FFF" fill-rule="nonzero">
        <path stroke="#FFF" d="M19.825 1H8.175C4.219 1 1 4.219 1 8.175v11.65C1 23.78 4.219 27 8.175 27h11.65C23.78 27 27 23.781 27 19.825V8.175C27 4.22 23.781 1 19.825 1zm4.868 18.825a4.874 4.874 0 0 1-4.868 4.868H8.175a4.874 4.874 0 0 1-4.868-4.868V8.175a4.874 4.874 0 0 1 4.868-4.868h11.65a4.874 4.874 0 0 1 4.868 4.868v11.65z"/>
        <path stroke="#FFF" d="M14 8c-3.308 0-6 2.692-6 6 0 3.309 2.692 6 6 6s6-2.691 6-6c0-3.308-2.692-6-6-6zm0 10c-2.206 0-4-1.794-4-4s1.794-4 4-4 4 1.794 4 4-1.794 4-4 4z"/>
        <path d="M20.5 6A1.507 1.507 0 0 0 19 7.5c0 .394.16.781.44 1.06.279.28.666.44 1.06.44.395 0 .781-.16 1.06-.44.28-.279.44-.666.44-1.06 0-.395-.16-.783-.44-1.06A1.506 1.506 0 0 0 20.5 6z"/>
    </g>
</svg>
