<svg xmlns="http://www.w3.org/2000/svg" width="22" height="21" viewBox="0 0 22 21">
    <path fill="#FFF" fill-rule="nonzero" d="M22 12.875V21h-4.715v-7.58c0-1.905-.682-3.205-2.39-3.205-1.302 0-2.077.876-2.419 1.723-.124.303-.156.725-.156 1.149V21H7.603s.064-12.84 0-14.17h4.717V8.84l-.031.046h.03v-.046c.627-.964 1.746-2.341 4.251-2.341 3.104 0 5.43 2.025 5.43 6.377zM2.67 0C1.054 0 0 1.057 0 2.448c0 1.36 1.025 2.45 2.606 2.45h.032c1.645 0 2.668-1.09 2.668-2.45C5.275 1.058 4.283 0 2.669 0zM.28 21h4.715V6.83H.28V21z"/>
</svg>
