<svg xmlns="http://www.w3.org/2000/svg" width="13" height="11" viewBox="0 0 13 11">
    <path fill="#FFF" fill-rule="nonzero" stroke="#FFF" d="M11.382 4.65l-7.344.004L6.352 2.37a.589.589 0 0 0 0-.842l-.36-.355A.602.602 0 0 0 5.567 1a.601.601 0 0 0-.425.173L1.175 5.08A.583.583 0 0 0 1 5.5c0 .159.062.308.175.42l3.967 3.907a.602.602 0 0 0 .425.173c.16 0 .312-.061.425-.173l.36-.355a.582.582 0 0 0 .176-.418c0-.159-.063-.3-.176-.411l-2.34-2.297h7.378c.331 0 .61-.282.61-.608v-.502c0-.326-.287-.586-.618-.586z"/>
</svg>
